<?xml version="1.0" encoding="UTF-8" standalone="no" ?>
<!DOCTYPE svg PUBLIC "-//W3C//DTD SVG 1.1//EN" "http://www.w3.org/Graphics/SVG/1.1/DTD/svg11.dtd">
<svg xmlns="http://www.w3.org/2000/svg" xmlns:xlink="http://www.w3.org/1999/xlink" version="1.1" width="366.9998474121094" height="110.43199999999999" xml:space="preserve">
<desc>Created with Fabric.js 1.6.0-rc.1</desc>
<defs></defs>
<g style="stroke: none; stroke-width: 1; stroke-dasharray: none; stroke-linecap: butt; stroke-linejoin: miter; stroke-miterlimit: 10; fill: none; fill-rule: nonzero; opacity: 1;" transform="translate(103.34000000000003 10) scale(0.07 0.07)" >
  <circle cx="256.003" cy="256.003" r="245.333" style="stroke: none; stroke-width: 1; stroke-dasharray: none; stroke-linecap: butt; stroke-linejoin: miter; stroke-miterlimit: 10; fill: #FFC64D; fill-rule: nonzero; opacity: 1;" transform="  matrix(1 0 0 1 0 0) "/>
  <path d="M 414.114 318.08 c -18.197 44.64 -54.763 79.915 -100.267 96.352 c -4.373 -24.491 -28.608 -43.232 -57.845 -43.232 c -29.248 0 -53.483 18.741 -57.856 43.232 c -45.504 -16.448 -82.069 -51.712 -100.267 -96.352 H 414.114 z" style="stroke: none; stroke-width: 1; stroke-dasharray: none; stroke-linecap: butt; stroke-linejoin: miter; stroke-miterlimit: 10; fill: #79302A; fill-rule: nonzero; opacity: 1;" transform=" matrix(1 0 0 1 0 0) " stroke-linecap="round" />
  <path d="M 102.062 268.638 c -17.856 10.309 -40.689 4.191 -50.998 -13.665 s -4.191 -40.689 13.665 -50.998 c 17.856 -10.309 70.397 2.465 70.397 2.465 S 119.918 258.329 102.062 268.638 z" style="stroke: none; stroke-width: 1; stroke-dasharray: none; stroke-linecap: butt; stroke-linejoin: miter; stroke-miterlimit: 10; fill: #3498DB; fill-rule: nonzero; opacity: 1;" transform=" matrix(1 0 0 1 0 0) " stroke-linecap="round" />
  <path d="M 405.951 268.638 c 17.856 10.309 40.689 4.191 50.998 -13.665 s 4.191 -40.689 -13.665 -50.998 c -17.856 -10.309 -70.397 2.465 -70.397 2.465 S 388.095 258.329 405.951 268.638 z" style="stroke: none; stroke-width: 1; stroke-dasharray: none; stroke-linecap: butt; stroke-linejoin: miter; stroke-miterlimit: 10; fill: #3498DB; fill-rule: nonzero; opacity: 1;" transform=" matrix(1 0 0 1 0 0) " stroke-linecap="round" />
  <path d="M 313.847 414.432 c -18.069 6.539 -37.547 10.101 -57.845 10.101 s -39.787 -3.563 -57.856 -10.101 c 4.373 -24.491 28.608 -43.232 57.856 -43.232 C 285.239 371.2 309.474 389.941 313.847 414.432 z" style="stroke: none; stroke-width: 1; stroke-dasharray: none; stroke-linecap: butt; stroke-linejoin: miter; stroke-miterlimit: 10; fill: #E74C3C; fill-rule: nonzero; opacity: 1;" transform=" matrix(1 0 0 1 0 0) " stroke-linecap="round" />
  <path d="M 437.02 74.98 C 388.667 26.628 324.38 0 256 0 S 123.333 26.628 74.98 74.98 S 0 187.62 0 256 s 26.628 132.667 74.98 181.02 S 187.62 512 256 512 s 132.667 -26.628 181.02 -74.98 S 512 324.38 512 256 S 485.372 123.333 437.02 74.98 z M 256 490.667 c -129.396 0 -234.667 -105.27 -234.667 -234.667 S 126.604 21.333 256 21.333 S 490.667 126.604 490.667 256 S 385.396 490.667 256 490.667 z" style="stroke: none; stroke-width: 1; stroke-dasharray: none; stroke-linecap: butt; stroke-linejoin: miter; stroke-miterlimit: 10; fill: #231F20; fill-rule: nonzero; opacity: 1;" transform=" matrix(1 0 0 1 0 0) " stroke-linecap="round" />
  <path d="M 414.114 307.413 H 97.879 c -3.552 0 -6.87 1.769 -8.852 4.716 c -1.981 2.948 -2.366 6.689 -1.025 9.978 c 19.399 47.589 58.22 84.894 106.506 102.352 c 0.003 0.001 0.006 0.002 0.009 0.003 c 19.689 7.124 40.374 10.738 61.483 10.738 l 0 0 H 256 c 0.001 0 0.001 0 0.002 0 c 21.1 0 41.781 -3.613 61.468 -10.736 h 0.002 c 0.001 0 0.002 -0.001 0.003 -0.001 c 0.001 0 0.002 -0.001 0.003 -0.001 c 0 0 0.001 0 0.002 -0.001 c 48.285 -17.444 87.106 -54.75 106.513 -102.354 c 1.341 -3.289 0.956 -7.029 -1.025 -9.978 C 420.985 309.182 417.666 307.413 414.114 307.413 z M 256 395.733 c -5.891 0 -10.667 4.775 -10.667 10.667 v 7.105 c -11.523 -0.761 -22.861 -2.745 -33.887 -5.951 c 7.101 -15.119 24.709 -25.687 44.556 -25.687 c 19.841 0 37.445 10.569 44.546 25.687 c -11.026 3.206 -22.362 5.19 -33.882 5.951 V 406.4 C 266.667 400.509 261.891 395.733 256 395.733 z M 320.671 400.203 c -10.017 -23.585 -35.331 -39.669 -64.669 -39.669 c -29.343 0 -54.66 16.082 -64.678 39.667 c -32.817 -14.556 -59.866 -39.801 -76.689 -71.454 h 282.724 C 380.533 360.412 353.487 385.654 320.671 400.203 z" style="stroke: none; stroke-width: 1; stroke-dasharray: none; stroke-linecap: butt; stroke-linejoin: miter; stroke-miterlimit: 10; fill: #231F20; fill-rule: nonzero; opacity: 1;" transform=" matrix(1 0 0 1 0 0) " stroke-linecap="round" />
  <path d="M 145.219 209.918 l 36.873 -31.377 l 40.052 34.084 c 4.486 3.818 11.218 3.276 15.037 -1.211 c 3.818 -4.486 3.276 -11.219 -1.211 -15.037 l -46.965 -39.967 c -3.985 -3.391 -9.841 -3.391 -13.826 0 l -44.707 38.045 c -16.913 -3.564 -53.814 -9.686 -71.076 0.282 c -11.104 6.411 -19.045 16.762 -22.364 29.146 s -1.616 25.319 4.796 36.422 c 6.411 11.104 16.761 19.045 29.146 22.365 c 4.135 1.108 8.333 1.657 12.501 1.657 c 8.317 0 16.526 -2.181 23.922 -6.451 C 127.601 266.209 142.164 220.242 145.219 209.918 z M 96.729 259.401 c -6.17 3.562 -13.356 4.507 -20.235 2.665 c -6.88 -1.844 -12.63 -6.256 -16.192 -12.425 c -3.562 -6.169 -4.508 -13.355 -2.665 -20.235 c 1.843 -6.88 6.256 -12.63 12.425 -16.192 c 3.198 -1.846 9.014 -2.593 16.073 -2.593 c 10.494 0 23.732 1.65 35.191 3.788 C 114.837 232.797 104.681 254.809 96.729 259.401 z" style="stroke: none; stroke-width: 1; stroke-dasharray: none; stroke-linecap: butt; stroke-linejoin: miter; stroke-miterlimit: 10; fill: #231F20; fill-rule: nonzero; opacity: 1;" transform=" matrix(1 0 0 1 0 0) " stroke-linecap="round" />
  <path d="M 470.982 223.883 c -3.318 -12.384 -11.261 -22.735 -22.364 -29.146 c -17.264 -9.969 -54.164 -3.846 -71.077 -0.282 l -44.706 -38.044 c -3.985 -3.391 -9.842 -3.391 -13.826 0 l -46.966 39.967 c -4.486 3.818 -5.028 10.55 -1.211 15.037 c 2.11 2.479 5.109 3.754 8.129 3.754 c 2.444 0 4.9 -0.835 6.908 -2.543 l 40.053 -34.084 l 36.871 31.377 c 3.055 10.324 17.619 56.291 37.825 67.957 c 7.396 4.27 15.603 6.451 23.922 6.451 c 4.169 0 8.367 -0.548 12.501 -1.657 c 12.384 -3.318 22.735 -11.261 29.146 -22.365 C 472.598 249.202 474.301 236.267 470.982 223.883 z M 447.712 249.639 c -3.562 6.169 -9.312 10.581 -16.192 12.425 c -6.88 1.843 -14.066 0.897 -20.235 -2.665 c -7.953 -4.592 -18.111 -26.61 -24.599 -44.998 c 19.157 -3.581 43.294 -5.792 51.266 -1.189 c 6.169 3.562 10.581 9.312 12.425 16.192 C 452.22 236.285 451.274 243.47 447.712 249.639 z" style="stroke: none; stroke-width: 1; stroke-dasharray: none; stroke-linecap: butt; stroke-linejoin: miter; stroke-miterlimit: 10; fill: #231F20; fill-rule: nonzero; opacity: 1;" transform=" matrix(1 0 0 1 0 0) " stroke-linecap="round" />
</g>
  <g transform="translate(187.94 36.72)">
   <text font-family="ADAMCG PRO" font-size="40" font-weight="normal" style="stroke: none; stroke-width: 1; stroke-dasharray: none; stroke-linecap: butt; stroke-linejoin: miter; stroke-miterlimit: 10; fill: #000000; fill-rule: nonzero; opacity: 1;" ><tspan x="-37.05" y="8.98" style="stroke: none; stroke-width: 0; stroke-dasharray: none; stroke-linecap: butt; stroke-linejoin: miter; stroke-miterlimit: 4; fill: #000000; fill-rule: ; opacity: 1;">b</tspan><tspan x="-13.54" y="8.98" style="stroke: none; stroke-width: 0; stroke-dasharray: none; stroke-linecap: butt; stroke-linejoin: miter; stroke-miterlimit: 4; fill: #000000; fill-rule: ; opacity: 1;">b</tspan><tspan x="9.98" y="8.98" style="stroke: none; stroke-width: 0; stroke-dasharray: none; stroke-linecap: butt; stroke-linejoin: miter; stroke-miterlimit: 4; fill: #000000; fill-rule: ; opacity: 1;">c</tspan></text>
 </g>
  <g transform="translate(184 74.72)">
   <text font-family="Bombardier" font-size="40" font-weight="normal" style="stroke: none; stroke-width: 1; stroke-dasharray: none; stroke-linecap: butt; stroke-linejoin: miter; stroke-miterlimit: 10; fill: #ffc74d; fill-rule: nonzero; opacity: 1;" ><tspan x="-173.5" y="8.98" style="stroke: none; stroke-width: 0; stroke-dasharray: none; stroke-linecap: butt; stroke-linejoin: miter; stroke-miterlimit: 4; fill: #ffc74d; fill-rule: ; opacity: 1;">[</tspan><tspan x="-161.58" y="8.98" style="stroke: none; stroke-width: 0; stroke-dasharray: none; stroke-linecap: butt; stroke-linejoin: miter; stroke-miterlimit: 4; fill: #ffc74d; fill-rule: ; opacity: 1;">b</tspan><tspan x="-142.06" y="8.98" style="stroke: none; stroke-width: 0; stroke-dasharray: none; stroke-linecap: butt; stroke-linejoin: miter; stroke-miterlimit: 4; fill: #ffc74d; fill-rule: ; opacity: 1;">h</tspan><tspan x="-122.54" y="8.98" style="stroke: none; stroke-width: 0; stroke-dasharray: none; stroke-linecap: butt; stroke-linejoin: miter; stroke-miterlimit: 4; fill: #ffc74d; fill-rule: ; opacity: 1;">o</tspan><tspan x="-102.62" y="8.98" style="stroke: none; stroke-width: 0; stroke-dasharray: none; stroke-linecap: butt; stroke-linejoin: miter; stroke-miterlimit: 4; fill: #ffc74d; fill-rule: ; opacity: 1;">t</tspan><tspan x="-90.26" y="8.98" style="stroke: none; stroke-width: 0; stroke-dasharray: none; stroke-linecap: butt; stroke-linejoin: miter; stroke-miterlimit: 4; fill: #ffc74d; fill-rule: ; opacity: 1;"> </tspan><tspan x="-80.26" y="8.98" style="stroke: none; stroke-width: 0; stroke-dasharray: none; stroke-linecap: butt; stroke-linejoin: miter; stroke-miterlimit: 4; fill: #ffc74d; fill-rule: ; opacity: 1;">b</tspan><tspan x="-60.74" y="8.98" style="stroke: none; stroke-width: 0; stroke-dasharray: none; stroke-linecap: butt; stroke-linejoin: miter; stroke-miterlimit: 4; fill: #ffc74d; fill-rule: ; opacity: 1;">d</tspan><tspan x="-41.22" y="8.98" style="stroke: none; stroke-width: 0; stroke-dasharray: none; stroke-linecap: butt; stroke-linejoin: miter; stroke-miterlimit: 4; fill: #ffc74d; fill-rule: ; opacity: 1;">e</tspan><tspan x="-21.5" y="8.98" style="stroke: none; stroke-width: 0; stroke-dasharray: none; stroke-linecap: butt; stroke-linejoin: miter; stroke-miterlimit: 4; fill: #ffc74d; fill-rule: ; opacity: 1;"> </tspan><tspan x="-11.5" y="8.98" style="stroke: none; stroke-width: 0; stroke-dasharray: none; stroke-linecap: butt; stroke-linejoin: miter; stroke-miterlimit: 4; fill: #ffc74d; fill-rule: ; opacity: 1;">c</tspan><tspan x="6.82" y="8.98" style="stroke: none; stroke-width: 0; stroke-dasharray: none; stroke-linecap: butt; stroke-linejoin: miter; stroke-miterlimit: 4; fill: #ffc74d; fill-rule: ; opacity: 1;">o</tspan><tspan x="26.74" y="8.98" style="stroke: none; stroke-width: 0; stroke-dasharray: none; stroke-linecap: butt; stroke-linejoin: miter; stroke-miterlimit: 4; fill: #ffc74d; fill-rule: ; opacity: 1;">m</tspan><tspan x="55.94" y="8.98" style="stroke: none; stroke-width: 0; stroke-dasharray: none; stroke-linecap: butt; stroke-linejoin: miter; stroke-miterlimit: 4; fill: #ffc74d; fill-rule: ; opacity: 1;">e</tspan><tspan x="75.66" y="8.98" style="stroke: none; stroke-width: 0; stroke-dasharray: none; stroke-linecap: butt; stroke-linejoin: miter; stroke-miterlimit: 4; fill: #ffc74d; fill-rule: ; opacity: 1;">d</tspan><tspan x="95.18" y="8.98" style="stroke: none; stroke-width: 0; stroke-dasharray: none; stroke-linecap: butt; stroke-linejoin: miter; stroke-miterlimit: 4; fill: #ffc74d; fill-rule: ; opacity: 1;">i</tspan><tspan x="103.82" y="8.98" style="stroke: none; stroke-width: 0; stroke-dasharray: none; stroke-linecap: butt; stroke-linejoin: miter; stroke-miterlimit: 4; fill: #ffc74d; fill-rule: ; opacity: 1;">a</tspan><tspan x="123.34" y="8.98" style="stroke: none; stroke-width: 0; stroke-dasharray: none; stroke-linecap: butt; stroke-linejoin: miter; stroke-miterlimit: 4; fill: #ffc74d; fill-rule: ; opacity: 1;">n</tspan><tspan x="142.86" y="8.98" style="stroke: none; stroke-width: 0; stroke-dasharray: none; stroke-linecap: butt; stroke-linejoin: miter; stroke-miterlimit: 4; fill: #ffc74d; fill-rule: ; opacity: 1;">s</tspan><tspan x="161.58" y="8.98" style="stroke: none; stroke-width: 0; stroke-dasharray: none; stroke-linecap: butt; stroke-linejoin: miter; stroke-miterlimit: 4; fill: #ffc74d; fill-rule: ; opacity: 1;">]</tspan></text>
 </g>
</svg>