<?xml version="1.0" encoding="UTF-8" standalone="no" ?>
<!DOCTYPE svg PUBLIC "-//W3C//DTD SVG 1.1//EN" "http://www.w3.org/Graphics/SVG/1.1/DTD/svg11.dtd">
<svg xmlns="http://www.w3.org/2000/svg" xmlns:xlink="http://www.w3.org/1999/xlink" version="1.1" width="213.11000000000007" height="93.85979999999998" xml:space="preserve">
<desc>Created with Fabric.js 1.6.0-rc.1</desc>
<defs></defs>
<g style="stroke: none; stroke-width: 1; stroke-dasharray: none; stroke-linecap: butt; stroke-linejoin: miter; stroke-miterlimit: 10; fill: none; fill-rule: nonzero; opacity: 1;" transform="translate(10 12.149999999999977) rotate(269.5) scale(0.19 0.19)" >
  <path d="M 125.352 292.262 l -58.078 70.291 c -5.324 6.444 -14.662 7.81 -21.609 3.163 l -10.211 -6.831 c -4.834 -3.234 -5.654 -10.013 -1.73 -14.306 l 67.528 -73.888 L 125.352 292.262 z" style="stroke: none; stroke-width: 1; stroke-dasharray: none; stroke-linecap: butt; stroke-linejoin: miter; stroke-miterlimit: 10; fill: #394049; fill-rule: nonzero; opacity: 1;" transform=" matrix(1 0 0 1 0 0) " stroke-linecap="round" />
  <path d="M 101.253 270.692 l -67.528 73.888 c -0.722 0.79 -1.281 1.665 -1.686 2.586 c 11.054 6.631 24.23 9.625 38.859 11.004 l 54.454 -65.907 L 101.253 270.692 z" style="stroke: none; stroke-width: 1; stroke-dasharray: none; stroke-linecap: butt; stroke-linejoin: miter; stroke-miterlimit: 10; fill: #eebe00; fill-rule: nonzero; opacity: 1;" transform=" matrix(1 0 0 1 0 0) " stroke-linecap="round" />
  <path d="M 386.648 292.262 l 58.077 70.291 c 5.324 6.444 14.662 7.81 21.609 3.163 l 10.211 -6.831 c 4.834 -3.234 5.654 -10.013 1.73 -14.306 l -67.528 -73.888 L 386.648 292.262 z" style="stroke: none; stroke-width: 1; stroke-dasharray: none; stroke-linecap: butt; stroke-linejoin: miter; stroke-miterlimit: 10; fill: #394049; fill-rule: nonzero; opacity: 1;" transform=" matrix(1 0 0 1 0 0) " stroke-linecap="round" />
  <path d="M 410.747 270.692 l 67.528 73.888 c 0.722 0.79 1.281 1.665 1.686 2.586 c -11.054 6.631 -24.23 9.625 -38.859 11.004 l -54.454 -65.907 L 410.747 270.692 z" style="stroke: none; stroke-width: 1; stroke-dasharray: none; stroke-linecap: butt; stroke-linejoin: miter; stroke-miterlimit: 10; fill: #eebe00; fill-rule: nonzero; opacity: 1;" transform=" matrix(1 0 0 1 0 0) " stroke-linecap="round" />
  <path d="M 255.999 143.512 c 40.958 0 105.538 1.162 138.119 3.897 c 33.132 2.219 59.301 3.972 78.966 17.69 c 27.301 19.045 30.982 53.112 30.982 83.925 c 0 37.243 -3.656 63.841 -21.852 81.345 c -18.519 17.814 -45.803 19.557 -76.942 19.91 c -1.502 0.018 -2.984 0.026 -4.435 0.026 c -0.003 0 -0.003 0 -0.007 0 c -26.623 0 -54.312 -2.506 -76.434 -20.673 c -18.542 -15.227 -30.011 -37.966 -43.552 -72.098 c -1.853 -4.67 -3.581 -9.215 -5.157 -13.637 c -5.04 -13.314 -11.037 -14.465 -19.687 -14.465 c -8.65 0 -14.647 1.151 -19.687 14.465 c -1.576 4.421 -3.304 8.967 -5.158 13.637 c -13.541 34.132 -25.01 56.87 -43.552 72.098 c -22.123 18.167 -49.811 20.673 -76.435 20.673 c -0.003 0 -0.003 0 -0.007 0 c -1.451 0 -2.933 -0.008 -4.435 -0.026 c -31.139 -0.353 -58.423 -2.096 -76.942 -19.91 c -18.194 -17.505 -21.85 -44.103 -21.85 -81.345 c 0 -30.812 3.681 -64.88 30.982 -83.925 c 19.665 -13.718 45.834 -15.471 78.966 -17.69 C 150.462 144.674 215.041 143.512 255.999 143.512 z" style="stroke: none; stroke-width: 1; stroke-dasharray: none; stroke-linecap: butt; stroke-linejoin: miter; stroke-miterlimit: 10; fill: #000005; fill-rule: nonzero; opacity: 1;" transform=" matrix(1 0 0 1 0 0) " stroke-linecap="round" />
  <path d="M 131.614 169.6 c -70.262 5.019 -100.603 2.129 -100.603 79.424 c 0 69.033 14.07 77.476 75.98 78.18 s 77.085 -13.582 102.715 -78.18 C 240.371 171.728 220.257 163.267 131.614 169.6 z" style="stroke: none; stroke-width: 1; stroke-dasharray: none; stroke-linecap: butt; stroke-linejoin: miter; stroke-miterlimit: 10; fill: #eebe00; fill-rule: nonzero; opacity: 1;" transform=" matrix(1 0 0 1 0 0) " stroke-linecap="round" />
  <path d="M 223.073 195.85 c -0.579 11.87 -5.145 27.642 -13.368 48.37 c -25.629 64.598 -40.804 78.883 -102.715 78.18 c -60.955 -0.693 -75.534 -8.887 -75.97 -75.029 c -0.003 0.551 -0.011 1.093 -0.011 1.652 c 0 69.033 14.07 77.476 75.981 78.18 c 61.909 0.703 77.085 -13.582 102.715 -78.18 C 219.092 225.363 223.71 208.16 223.073 195.85 z" style="stroke: none; stroke-width: 1; stroke-dasharray: none; stroke-linecap: butt; stroke-linejoin: miter; stroke-miterlimit: 10; fill: #eebe00; fill-rule: nonzero; opacity: 1;" transform=" matrix(1 0 0 1 0 0) " stroke-linecap="round" />
  <path d="M 380.386 169.6 c 70.262 5.019 100.604 2.129 100.604 79.424 c 0 69.033 -14.07 77.476 -75.981 78.18 s -77.085 -13.582 -102.715 -78.18 C 271.629 171.728 291.743 163.267 380.386 169.6 z" style="stroke: none; stroke-width: 1; stroke-dasharray: none; stroke-linecap: butt; stroke-linejoin: miter; stroke-miterlimit: 10; fill: #eebe00; fill-rule: nonzero; opacity: 1;" transform=" matrix(1 0 0 1 0 0) " stroke-linecap="round" />
  <path d="M 255.999 143.512 c -2.557 0 -5.206 0.004 -7.933 0.014 v 51.173 c 0 4.381 3.551 7.933 7.933 7.933 c 4.382 0 7.933 -3.552 7.933 -7.933 v -51.173 C 261.206 143.516 258.557 143.512 255.999 143.512 z" style="stroke: none; stroke-width: 1; stroke-dasharray: none; stroke-linecap: butt; stroke-linejoin: miter; stroke-miterlimit: 10; fill: #FFFFFF; fill-rule: nonzero; opacity: 1;" transform=" matrix(1 0 0 1 0 0) " stroke-linecap="round" />
  <path d="M 288.927 195.85 c 0.578 11.87 5.144 27.642 13.368 48.37 c 25.629 64.598 40.804 78.883 102.715 78.18 c 60.955 -0.693 75.534 -8.887 75.97 -75.029 c 0.003 0.551 0.011 1.093 0.011 1.652 c 0 69.033 -14.07 77.476 -75.981 78.18 s -77.085 -13.582 -102.715 -78.18 C 292.908 225.363 288.29 208.16 288.927 195.85 z" style="stroke: none; stroke-width: 1; stroke-dasharray: none; stroke-linecap: butt; stroke-linejoin: miter; stroke-miterlimit: 10; fill: #eebe00; fill-rule: nonzero; opacity: 1;" transform=" matrix(1 0 0 1 0 0) " stroke-linecap="round" />
  <path d="M 131.614 169.6 c -70.262 5.019 -100.604 2.129 -100.604 79.424 c 0 31.836 2.998 50.78 12.295 62.027 l 142.552 -142.552 C 171.937 167.35 153.954 168.004 131.614 169.6 z" style="stroke: none; stroke-width: 1; stroke-dasharray: none; stroke-linecap: butt; stroke-linejoin: miter; stroke-miterlimit: 10; fill: #FFFFFF; fill-rule: nonzero; opacity: 1;" transform=" matrix(1 0 0 1 0 0) " stroke-linecap="round" />
  <path d="M 473.26 200.211 L 353.183 320.288 c 12.916 5.434 29.266 7.173 51.827 6.916 c 61.909 -0.703 75.981 -9.145 75.981 -78.18 C 480.991 226.838 478.485 211.268 473.26 200.211 z" style="stroke: none; stroke-width: 1; stroke-dasharray: none; stroke-linecap: butt; stroke-linejoin: miter; stroke-miterlimit: 10; fill: #FFFFFF; fill-rule: nonzero; opacity: 1;" transform=" matrix(1 0 0 1 0 0) " stroke-linecap="round" />
  <path d="M 131.049 161.687 c -4.194 0.299 -8.245 0.571 -12.156 0.832 c -61.783 4.138 -95.816 6.416 -95.816 86.504 c 0 33.263 2.879 56.648 17.208 70.431 c 13.199 12.695 33.595 15.306 66.616 15.681 c 1.509 0.017 2.999 0.026 4.474 0.026 c 26.993 0 48.575 -3.064 65.473 -16.318 c 16.623 -13.037 27.338 -34.4 40.23 -66.895 c 15.71 -39.595 17.96 -61.422 7.766 -75.339 C 212.121 159.24 183.274 157.957 131.049 161.687 z M 202.33 246.098 c -25.217 63.56 -38.552 73.828 -95.25 73.172 c -28.265 -0.322 -46.456 -2.265 -55.797 -11.25 c -8.881 -8.542 -12.341 -25.083 -12.341 -58.996 c 0 -32.337 5.298 -49.83 17.714 -58.491 c 12.595 -8.787 33.862 -10.211 63.295 -12.182 c 3.934 -0.263 8.008 -0.536 12.227 -0.838 c 43.216 -3.087 71.647 -2.745 79.866 8.475 C 218.386 194.643 215.39 213.183 202.33 246.098 z M 487.714 336.086 C 507.937 316.632 512 288.351 512 249.024 c 0 -32.859 -4.084 -69.299 -34.376 -90.431 c -21.46 -14.97 -48.578 -16.796 -82.905 -19.095 c -34.324 -2.875 -101.75 -3.919 -138.719 -3.919 s -104.394 1.044 -138.72 3.919 c -34.327 2.299 -61.445 4.124 -82.905 19.095 C 4.084 179.724 0 216.164 0 249.024 c 0 39.327 4.063 67.609 24.286 87.063 c 1.159 1.115 2.348 2.165 3.558 3.17 c -3.413 3.752 -5.024 8.788 -4.416 13.825 c 0.611 5.051 3.386 9.57 7.614 12.397 l 10.211 6.831 c 4.141 2.77 8.832 4.113 13.478 4.111 c 6.99 0 13.882 -3.037 18.657 -8.815 l 8.504 -10.292 c 7.929 0.593 16.2 0.8 24.742 0.896 c 1.535 0.018 3.047 0.026 4.536 0.026 c 28.097 0 57.414 -2.723 81.468 -22.476 c 19.868 -16.316 31.872 -39.965 45.893 -75.304 c 1.988 -5.011 3.697 -9.532 5.227 -13.821 c 3.522 -9.273 5.903 -9.272 12.241 -9.272 c 6.338 0 8.719 -0.001 12.241 9.272 c 1.531 4.288 3.241 8.81 5.227 13.822 c 14.021 35.337 26.024 58.987 45.893 75.302 c 24.053 19.753 53.37 22.476 81.475 22.476 c 1.481 0 2.993 -0.008 4.525 -0.026 c 8.543 -0.097 16.815 -0.303 24.745 -0.896 l 8.503 10.291 c 4.776 5.78 11.666 8.816 18.658 8.815 c 4.647 0 9.338 -1.342 13.479 -4.113 l 10.208 -6.831 c 4.229 -2.828 7.003 -7.347 7.615 -12.398 c 0.609 -5.038 -1.002 -10.073 -4.416 -13.825 C 485.366 338.252 486.555 337.201 487.714 336.086 z M 61.156 357.5 c -2.741 3.317 -7.505 4.014 -11.081 1.623 l -10.211 -6.831 c -0.495 -0.331 -0.645 -0.789 -0.684 -1.115 c -0.039 -0.326 -0.002 -0.806 0.4 -1.246 l 1.823 -1.994 c 6.773 3.27 14.094 5.489 21.873 6.999 L 61.156 357.5 z M 472.82 351.176 c -0.039 0.326 -0.19 0.784 -0.686 1.115 l -10.208 6.831 c -3.578 2.394 -8.341 1.695 -11.083 -1.623 l -2.119 -2.564 c 7.78 -1.51 15.101 -3.73 21.873 -6.999 l 1.823 1.994 C 472.822 350.369 472.859 350.851 472.82 351.176 z M 476.715 324.651 c -16.424 15.799 -42.114 17.361 -71.535 17.694 c -1.471 0.017 -2.922 0.025 -4.349 0.025 c -25.147 0 -51.203 -2.286 -71.399 -18.87 c -17.218 -14.141 -28.15 -35.968 -41.213 -68.891 c -1.929 -4.867 -3.585 -9.242 -5.058 -13.376 c -0.018 -0.049 -0.035 -0.097 -0.054 -0.145 c -6.176 -16.312 -14.95 -19.59 -27.106 -19.59 c -12.156 0 -20.93 3.277 -27.106 19.59 c -0.019 0.048 -0.036 0.096 -0.054 0.145 c -1.473 4.135 -3.129 8.51 -5.058 13.375 c -13.063 32.924 -23.995 54.752 -41.213 68.893 c -20.196 16.585 -46.251 18.87 -71.406 18.87 c -1.422 0 -2.872 -0.008 -4.345 -0.025 c -29.419 -0.333 -55.108 -1.895 -71.532 -17.694 c -16.171 -15.556 -19.419 -40.471 -19.419 -75.629 c 0 -28.766 3.278 -60.459 27.587 -77.417 c 17.857 -12.457 43.055 -14.145 74.957 -16.281 c 0.044 -0.003 0.089 -0.006 0.133 -0.011 c 33.82 -2.839 100.731 -3.869 137.456 -3.869 s 103.636 1.03 137.456 3.869 c 0.044 0.003 0.089 0.007 0.133 0.011 c 31.902 2.137 57.1 3.824 74.957 16.281 c 13.641 9.517 27.587 26.156 27.587 77.417 C 496.134 284.181 492.885 309.096 476.715 324.651 z M 393.108 162.519 c -3.911 -0.262 -7.962 -0.533 -12.156 -0.832 c -52.228 -3.731 -81.072 -2.447 -93.797 14.924 c -10.194 13.916 -7.944 35.744 7.766 75.338 c 12.892 32.494 23.607 53.858 40.23 66.895 c 16.9 13.255 38.479 16.318 65.473 16.318 c 1.476 0 2.968 -0.01 4.474 -0.026 c 33.022 -0.374 53.419 -2.985 66.618 -15.681 c 14.328 -13.784 17.208 -37.169 17.208 -70.431 C 488.924 168.935 454.891 166.656 393.108 162.519 z M 460.717 308.02 c -9.341 8.986 -27.531 10.929 -55.797 11.25 c -56.699 0.629 -70.034 -9.613 -95.25 -73.172 c -13.06 -32.915 -16.056 -51.455 -9.714 -60.11 c 5.497 -7.506 20.036 -10.143 41.999 -10.143 c 10.868 0 23.559 0.646 37.867 1.668 c 4.217 0.301 8.293 0.574 12.227 0.838 c 29.433 1.971 50.7 3.395 63.295 12.182 c 12.416 8.661 17.714 26.154 17.714 58.491 C 473.058 282.936 469.598 299.478 460.717 308.02 z" style="stroke: none; stroke-width: 1; stroke-dasharray: none; stroke-linecap: butt; stroke-linejoin: miter; stroke-miterlimit: 10; fill: #eebe00; fill-rule: nonzero; opacity: 1;" transform=" matrix(1 0 0 1 0 0) " stroke-linecap="round" />
</g>
<g style="stroke: none; stroke-width: 1; stroke-dasharray: none; stroke-linecap: butt; stroke-linejoin: miter; stroke-miterlimit: 10; fill: none; fill-rule: nonzero; opacity: 1;" transform="translate(141.55000000000007 12.139999999999986) rotate(270.01) scale(0.12 0.12)" >
  <path d="M 90.45 479.941 H 52.244 c -23.083 0 -41.795 -18.712 -41.795 -41.795 v -75.235 c 0 -23.083 18.712 -41.795 41.795 -41.795 h 38.205 v 158.824 H 90.45 z" style="stroke: none; stroke-width: 1; stroke-dasharray: none; stroke-linecap: butt; stroke-linejoin: miter; stroke-miterlimit: 10; fill: #000000; fill-rule: nonzero; opacity: 1;" transform=" matrix(1 0 0 1 0 0) " stroke-linecap="round" />
  <rect x="90.45" y="321.12" rx="0" ry="0" width="35.53" height="158.82" style="stroke: none; stroke-width: 1; stroke-dasharray: none; stroke-linecap: butt; stroke-linejoin: miter; stroke-miterlimit: 10; fill: #000000; fill-rule: nonzero; opacity: 1;" transform=" matrix(1 0 0 1 0 0) "/>
  <path d="M 421.549 321.119 h 38.206 c 23.083 0 41.795 18.712 41.795 41.794 l 0.001 75.235 c 0 23.084 -18.712 41.796 -41.796 41.796 h -38.205 L 421.549 321.119 z" style="stroke: none; stroke-width: 1; stroke-dasharray: none; stroke-linecap: butt; stroke-linejoin: miter; stroke-miterlimit: 10; fill: #000000; fill-rule: nonzero; opacity: 1;" transform=" matrix(1 0 0 1 0 0) " stroke-linecap="round" />
  <rect x="386.03" y="321.12" rx="0" ry="0" width="35.53" height="158.82" style="stroke: none; stroke-width: 1; stroke-dasharray: none; stroke-linecap: butt; stroke-linejoin: miter; stroke-miterlimit: 10; fill: #000000; fill-rule: nonzero; opacity: 1;" transform=" matrix(1 0 0 1 0 0) "/>
  <path d="M 255.997 32.056 c -67.807 0 -129.193 27.484 -173.629 71.919 l 25.337 25.337 c 38.117 -37.638 90.492 -60.873 148.293 -60.873 c 57.803 0 110.178 23.233 148.297 60.873 l 25.337 -25.337 C 385.195 59.539 323.807 32.056 255.997 32.056 z" style="stroke: none; stroke-width: 1; stroke-dasharray: none; stroke-linecap: butt; stroke-linejoin: miter; stroke-miterlimit: 10; fill: #000000; fill-rule: nonzero; opacity: 1;" transform=" matrix(1 0 0 1 0 0) " stroke-linecap="round" />
  <path d="M 456.62 357.359 c -5.771 0 -10.449 4.679 -10.449 10.449 v 4.678 c 0 5.771 4.678 10.449 10.449 10.449 c 5.771 0 10.449 -4.678 10.449 -10.449 v -4.678 C 467.069 362.037 462.391 357.359 456.62 357.359 z" style="stroke: none; stroke-width: 1; stroke-dasharray: none; stroke-linecap: butt; stroke-linejoin: miter; stroke-miterlimit: 10; fill: #eebe00; fill-rule: nonzero; opacity: 1;" transform=" matrix(1 0 0 1 0 0) " stroke-linecap="round" />
  <path d="M 55.38 382.934 c 5.771 0 10.449 -4.678 10.449 -10.449 v -4.678 c 0 -5.77 -4.678 -10.449 -10.449 -10.449 s -10.449 4.679 -10.449 10.449 v 4.678 C 44.931 378.256 49.609 382.934 55.38 382.934 z" style="stroke: none; stroke-width: 1; stroke-dasharray: none; stroke-linecap: butt; stroke-linejoin: miter; stroke-miterlimit: 10; fill: #eebe00; fill-rule: nonzero; opacity: 1;" transform=" matrix(1 0 0 1 0 0) " stroke-linecap="round" />
  <path d="M 512 277.605 c 0 -68.376 -26.626 -132.66 -74.974 -181.011 c -0.002 -0.002 -0.004 -0.004 -0.006 -0.007 c -0.002 -0.002 -0.004 -0.004 -0.007 -0.006 c -48.351 -48.347 -112.637 -74.975 -181.016 -74.975 S 123.331 48.235 74.98 96.586 C 26.628 144.939 0 209.225 0 277.605 v 160.541 c 0 28.807 23.437 52.244 52.244 52.244 l 73.732 0.002 c 5.771 0 10.449 -4.678 10.449 -10.449 V 321.117 c 0 -5.771 -4.678 -10.449 -10.449 -10.449 H 52.244 c -11.752 0 -22.608 3.903 -31.346 10.477 v -43.54 c 0 -61.066 23.409 -116.764 61.717 -158.606 l 17.702 17.702 c 4.064 4.063 10.643 4.082 14.731 0.046 c 37.785 -37.31 87.842 -57.859 140.952 -57.859 c 53.11 0 103.169 20.548 140.955 57.859 c 2.035 2.009 4.688 3.013 7.341 3.013 c 2.675 0 5.349 -1.021 7.388 -3.061 l 17.701 -17.701 c 38.309 41.843 61.718 97.54 61.718 158.606 v 43.543 c -8.737 -6.574 -19.594 -10.477 -31.347 -10.477 l -73.733 -0.002 c -5.771 0 -10.449 4.678 -10.449 10.449 v 158.827 c 0 5.771 4.678 10.449 10.449 10.449 h 73.733 c 28.808 0 52.245 -23.437 52.245 -52.245 V 277.605 z M 115.527 469.495 h -14.629 V 331.566 h 14.63 v 137.929 H 115.527 z M 52.244 331.566 h 27.756 v 137.927 H 65.829 V 406.29 c 0 -5.771 -4.678 -10.449 -10.449 -10.449 s -10.449 4.678 -10.449 10.449 v 62.332 c -13.767 -3.304 -24.033 -15.71 -24.033 -30.475 v -75.235 C 20.898 345.628 34.96 331.566 52.244 331.566 z M 404.08 114.75 c -40.728 -36.678 -92.915 -56.759 -148.082 -56.759 c -55.165 0 -107.352 20.081 -148.078 56.759 l -10.528 -10.527 c 41.842 -38.308 97.539 -61.717 158.605 -61.717 c 61.068 0 116.766 23.409 158.61 61.718 L 404.08 114.75 z M 396.471 331.566 h 14.63 l 0.001 137.929 h -14.631 V 331.566 z M 467.069 468.624 V 406.29 c 0 -5.771 -4.678 -10.449 -10.449 -10.449 c -5.771 0 -10.449 4.678 -10.449 10.449 v 63.205 h -14.172 l -0.001 -137.927 h 27.757 c 17.284 0 31.346 14.061 31.346 31.345 v 75.235 C 491.101 452.914 480.836 465.32 467.069 468.624 z" style="stroke: none; stroke-width: 1; stroke-dasharray: none; stroke-linecap: butt; stroke-linejoin: miter; stroke-miterlimit: 10; fill: #eebe00; fill-rule: nonzero; opacity: 1;" transform=" matrix(1 0 0 1 0 0) " stroke-linecap="round" />
</g>
<g style="stroke: none; stroke-width: 1; stroke-dasharray: none; stroke-linecap: butt; stroke-linejoin: miter; stroke-miterlimit: 10; fill: none; fill-rule: nonzero; opacity: 1;" transform="translate(65.75999999999999 10) rotate(269.5) scale(0.19 0.19)" >
  <path d="M 125.352 292.262 l -58.078 70.291 c -5.324 6.444 -14.662 7.81 -21.609 3.163 l -10.211 -6.831 c -4.834 -3.234 -5.654 -10.013 -1.73 -14.306 l 67.528 -73.888 L 125.352 292.262 z" style="stroke: none; stroke-width: 1; stroke-dasharray: none; stroke-linecap: butt; stroke-linejoin: miter; stroke-miterlimit: 10; fill: #394049; fill-rule: nonzero; opacity: 1;" transform=" matrix(1 0 0 1 0 0) " stroke-linecap="round" />
  <path d="M 101.253 270.692 l -67.528 73.888 c -0.722 0.79 -1.281 1.665 -1.686 2.586 c 11.054 6.631 24.23 9.625 38.859 11.004 l 54.454 -65.907 L 101.253 270.692 z" style="stroke: none; stroke-width: 1; stroke-dasharray: none; stroke-linecap: butt; stroke-linejoin: miter; stroke-miterlimit: 10; fill: #eebe00; fill-rule: nonzero; opacity: 1;" transform=" matrix(1 0 0 1 0 0) " stroke-linecap="round" />
  <path d="M 386.648 292.262 l 58.077 70.291 c 5.324 6.444 14.662 7.81 21.609 3.163 l 10.211 -6.831 c 4.834 -3.234 5.654 -10.013 1.73 -14.306 l -67.528 -73.888 L 386.648 292.262 z" style="stroke: none; stroke-width: 1; stroke-dasharray: none; stroke-linecap: butt; stroke-linejoin: miter; stroke-miterlimit: 10; fill: #394049; fill-rule: nonzero; opacity: 1;" transform=" matrix(1 0 0 1 0 0) " stroke-linecap="round" />
  <path d="M 410.747 270.692 l 67.528 73.888 c 0.722 0.79 1.281 1.665 1.686 2.586 c -11.054 6.631 -24.23 9.625 -38.859 11.004 l -54.454 -65.907 L 410.747 270.692 z" style="stroke: none; stroke-width: 1; stroke-dasharray: none; stroke-linecap: butt; stroke-linejoin: miter; stroke-miterlimit: 10; fill: #eebe00; fill-rule: nonzero; opacity: 1;" transform=" matrix(1 0 0 1 0 0) " stroke-linecap="round" />
  <path d="M 255.999 143.512 c 40.958 0 105.538 1.162 138.119 3.897 c 33.132 2.219 59.301 3.972 78.966 17.69 c 27.301 19.045 30.982 53.112 30.982 83.925 c 0 37.243 -3.656 63.841 -21.852 81.345 c -18.519 17.814 -45.803 19.557 -76.942 19.91 c -1.502 0.018 -2.984 0.026 -4.435 0.026 c -0.003 0 -0.003 0 -0.007 0 c -26.623 0 -54.312 -2.506 -76.434 -20.673 c -18.542 -15.227 -30.011 -37.966 -43.552 -72.098 c -1.853 -4.67 -3.581 -9.215 -5.157 -13.637 c -5.04 -13.314 -11.037 -14.465 -19.687 -14.465 c -8.65 0 -14.647 1.151 -19.687 14.465 c -1.576 4.421 -3.304 8.967 -5.158 13.637 c -13.541 34.132 -25.01 56.87 -43.552 72.098 c -22.123 18.167 -49.811 20.673 -76.435 20.673 c -0.003 0 -0.003 0 -0.007 0 c -1.451 0 -2.933 -0.008 -4.435 -0.026 c -31.139 -0.353 -58.423 -2.096 -76.942 -19.91 c -18.194 -17.505 -21.85 -44.103 -21.85 -81.345 c 0 -30.812 3.681 -64.88 30.982 -83.925 c 19.665 -13.718 45.834 -15.471 78.966 -17.69 C 150.462 144.674 215.041 143.512 255.999 143.512 z" style="stroke: none; stroke-width: 1; stroke-dasharray: none; stroke-linecap: butt; stroke-linejoin: miter; stroke-miterlimit: 10; fill: #000005; fill-rule: nonzero; opacity: 1;" transform=" matrix(1 0 0 1 0 0) " stroke-linecap="round" />
  <path d="M 131.614 169.6 c -70.262 5.019 -100.603 2.129 -100.603 79.424 c 0 69.033 14.07 77.476 75.98 78.18 s 77.085 -13.582 102.715 -78.18 C 240.371 171.728 220.257 163.267 131.614 169.6 z" style="stroke: none; stroke-width: 1; stroke-dasharray: none; stroke-linecap: butt; stroke-linejoin: miter; stroke-miterlimit: 10; fill: #eebe00; fill-rule: nonzero; opacity: 1;" transform=" matrix(1 0 0 1 0 0) " stroke-linecap="round" />
  <path d="M 223.073 195.85 c -0.579 11.87 -5.145 27.642 -13.368 48.37 c -25.629 64.598 -40.804 78.883 -102.715 78.18 c -60.955 -0.693 -75.534 -8.887 -75.97 -75.029 c -0.003 0.551 -0.011 1.093 -0.011 1.652 c 0 69.033 14.07 77.476 75.981 78.18 c 61.909 0.703 77.085 -13.582 102.715 -78.18 C 219.092 225.363 223.71 208.16 223.073 195.85 z" style="stroke: none; stroke-width: 1; stroke-dasharray: none; stroke-linecap: butt; stroke-linejoin: miter; stroke-miterlimit: 10; fill: #eebe00; fill-rule: nonzero; opacity: 1;" transform=" matrix(1 0 0 1 0 0) " stroke-linecap="round" />
  <path d="M 380.386 169.6 c 70.262 5.019 100.604 2.129 100.604 79.424 c 0 69.033 -14.07 77.476 -75.981 78.18 s -77.085 -13.582 -102.715 -78.18 C 271.629 171.728 291.743 163.267 380.386 169.6 z" style="stroke: none; stroke-width: 1; stroke-dasharray: none; stroke-linecap: butt; stroke-linejoin: miter; stroke-miterlimit: 10; fill: #eebe00; fill-rule: nonzero; opacity: 1;" transform=" matrix(1 0 0 1 0 0) " stroke-linecap="round" />
  <path d="M 255.999 143.512 c -2.557 0 -5.206 0.004 -7.933 0.014 v 51.173 c 0 4.381 3.551 7.933 7.933 7.933 c 4.382 0 7.933 -3.552 7.933 -7.933 v -51.173 C 261.206 143.516 258.557 143.512 255.999 143.512 z" style="stroke: none; stroke-width: 1; stroke-dasharray: none; stroke-linecap: butt; stroke-linejoin: miter; stroke-miterlimit: 10; fill: #FFFFFF; fill-rule: nonzero; opacity: 1;" transform=" matrix(1 0 0 1 0 0) " stroke-linecap="round" />
  <path d="M 288.927 195.85 c 0.578 11.87 5.144 27.642 13.368 48.37 c 25.629 64.598 40.804 78.883 102.715 78.18 c 60.955 -0.693 75.534 -8.887 75.97 -75.029 c 0.003 0.551 0.011 1.093 0.011 1.652 c 0 69.033 -14.07 77.476 -75.981 78.18 s -77.085 -13.582 -102.715 -78.18 C 292.908 225.363 288.29 208.16 288.927 195.85 z" style="stroke: none; stroke-width: 1; stroke-dasharray: none; stroke-linecap: butt; stroke-linejoin: miter; stroke-miterlimit: 10; fill: #eebe00; fill-rule: nonzero; opacity: 1;" transform=" matrix(1 0 0 1 0 0) " stroke-linecap="round" />
  <path d="M 131.614 169.6 c -70.262 5.019 -100.604 2.129 -100.604 79.424 c 0 31.836 2.998 50.78 12.295 62.027 l 142.552 -142.552 C 171.937 167.35 153.954 168.004 131.614 169.6 z" style="stroke: none; stroke-width: 1; stroke-dasharray: none; stroke-linecap: butt; stroke-linejoin: miter; stroke-miterlimit: 10; fill: #FFFFFF; fill-rule: nonzero; opacity: 1;" transform=" matrix(1 0 0 1 0 0) " stroke-linecap="round" />
  <path d="M 473.26 200.211 L 353.183 320.288 c 12.916 5.434 29.266 7.173 51.827 6.916 c 61.909 -0.703 75.981 -9.145 75.981 -78.18 C 480.991 226.838 478.485 211.268 473.26 200.211 z" style="stroke: none; stroke-width: 1; stroke-dasharray: none; stroke-linecap: butt; stroke-linejoin: miter; stroke-miterlimit: 10; fill: #FFFFFF; fill-rule: nonzero; opacity: 1;" transform=" matrix(1 0 0 1 0 0) " stroke-linecap="round" />
  <path d="M 131.049 161.687 c -4.194 0.299 -8.245 0.571 -12.156 0.832 c -61.783 4.138 -95.816 6.416 -95.816 86.504 c 0 33.263 2.879 56.648 17.208 70.431 c 13.199 12.695 33.595 15.306 66.616 15.681 c 1.509 0.017 2.999 0.026 4.474 0.026 c 26.993 0 48.575 -3.064 65.473 -16.318 c 16.623 -13.037 27.338 -34.4 40.23 -66.895 c 15.71 -39.595 17.96 -61.422 7.766 -75.339 C 212.121 159.24 183.274 157.957 131.049 161.687 z M 202.33 246.098 c -25.217 63.56 -38.552 73.828 -95.25 73.172 c -28.265 -0.322 -46.456 -2.265 -55.797 -11.25 c -8.881 -8.542 -12.341 -25.083 -12.341 -58.996 c 0 -32.337 5.298 -49.83 17.714 -58.491 c 12.595 -8.787 33.862 -10.211 63.295 -12.182 c 3.934 -0.263 8.008 -0.536 12.227 -0.838 c 43.216 -3.087 71.647 -2.745 79.866 8.475 C 218.386 194.643 215.39 213.183 202.33 246.098 z M 487.714 336.086 C 507.937 316.632 512 288.351 512 249.024 c 0 -32.859 -4.084 -69.299 -34.376 -90.431 c -21.46 -14.97 -48.578 -16.796 -82.905 -19.095 c -34.324 -2.875 -101.75 -3.919 -138.719 -3.919 s -104.394 1.044 -138.72 3.919 c -34.327 2.299 -61.445 4.124 -82.905 19.095 C 4.084 179.724 0 216.164 0 249.024 c 0 39.327 4.063 67.609 24.286 87.063 c 1.159 1.115 2.348 2.165 3.558 3.17 c -3.413 3.752 -5.024 8.788 -4.416 13.825 c 0.611 5.051 3.386 9.57 7.614 12.397 l 10.211 6.831 c 4.141 2.77 8.832 4.113 13.478 4.111 c 6.99 0 13.882 -3.037 18.657 -8.815 l 8.504 -10.292 c 7.929 0.593 16.2 0.8 24.742 0.896 c 1.535 0.018 3.047 0.026 4.536 0.026 c 28.097 0 57.414 -2.723 81.468 -22.476 c 19.868 -16.316 31.872 -39.965 45.893 -75.304 c 1.988 -5.011 3.697 -9.532 5.227 -13.821 c 3.522 -9.273 5.903 -9.272 12.241 -9.272 c 6.338 0 8.719 -0.001 12.241 9.272 c 1.531 4.288 3.241 8.81 5.227 13.822 c 14.021 35.337 26.024 58.987 45.893 75.302 c 24.053 19.753 53.37 22.476 81.475 22.476 c 1.481 0 2.993 -0.008 4.525 -0.026 c 8.543 -0.097 16.815 -0.303 24.745 -0.896 l 8.503 10.291 c 4.776 5.78 11.666 8.816 18.658 8.815 c 4.647 0 9.338 -1.342 13.479 -4.113 l 10.208 -6.831 c 4.229 -2.828 7.003 -7.347 7.615 -12.398 c 0.609 -5.038 -1.002 -10.073 -4.416 -13.825 C 485.366 338.252 486.555 337.201 487.714 336.086 z M 61.156 357.5 c -2.741 3.317 -7.505 4.014 -11.081 1.623 l -10.211 -6.831 c -0.495 -0.331 -0.645 -0.789 -0.684 -1.115 c -0.039 -0.326 -0.002 -0.806 0.4 -1.246 l 1.823 -1.994 c 6.773 3.27 14.094 5.489 21.873 6.999 L 61.156 357.5 z M 472.82 351.176 c -0.039 0.326 -0.19 0.784 -0.686 1.115 l -10.208 6.831 c -3.578 2.394 -8.341 1.695 -11.083 -1.623 l -2.119 -2.564 c 7.78 -1.51 15.101 -3.73 21.873 -6.999 l 1.823 1.994 C 472.822 350.369 472.859 350.851 472.82 351.176 z M 476.715 324.651 c -16.424 15.799 -42.114 17.361 -71.535 17.694 c -1.471 0.017 -2.922 0.025 -4.349 0.025 c -25.147 0 -51.203 -2.286 -71.399 -18.87 c -17.218 -14.141 -28.15 -35.968 -41.213 -68.891 c -1.929 -4.867 -3.585 -9.242 -5.058 -13.376 c -0.018 -0.049 -0.035 -0.097 -0.054 -0.145 c -6.176 -16.312 -14.95 -19.59 -27.106 -19.59 c -12.156 0 -20.93 3.277 -27.106 19.59 c -0.019 0.048 -0.036 0.096 -0.054 0.145 c -1.473 4.135 -3.129 8.51 -5.058 13.375 c -13.063 32.924 -23.995 54.752 -41.213 68.893 c -20.196 16.585 -46.251 18.87 -71.406 18.87 c -1.422 0 -2.872 -0.008 -4.345 -0.025 c -29.419 -0.333 -55.108 -1.895 -71.532 -17.694 c -16.171 -15.556 -19.419 -40.471 -19.419 -75.629 c 0 -28.766 3.278 -60.459 27.587 -77.417 c 17.857 -12.457 43.055 -14.145 74.957 -16.281 c 0.044 -0.003 0.089 -0.006 0.133 -0.011 c 33.82 -2.839 100.731 -3.869 137.456 -3.869 s 103.636 1.03 137.456 3.869 c 0.044 0.003 0.089 0.007 0.133 0.011 c 31.902 2.137 57.1 3.824 74.957 16.281 c 13.641 9.517 27.587 26.156 27.587 77.417 C 496.134 284.181 492.885 309.096 476.715 324.651 z M 393.108 162.519 c -3.911 -0.262 -7.962 -0.533 -12.156 -0.832 c -52.228 -3.731 -81.072 -2.447 -93.797 14.924 c -10.194 13.916 -7.944 35.744 7.766 75.338 c 12.892 32.494 23.607 53.858 40.23 66.895 c 16.9 13.255 38.479 16.318 65.473 16.318 c 1.476 0 2.968 -0.01 4.474 -0.026 c 33.022 -0.374 53.419 -2.985 66.618 -15.681 c 14.328 -13.784 17.208 -37.169 17.208 -70.431 C 488.924 168.935 454.891 166.656 393.108 162.519 z M 460.717 308.02 c -9.341 8.986 -27.531 10.929 -55.797 11.25 c -56.699 0.629 -70.034 -9.613 -95.25 -73.172 c -13.06 -32.915 -16.056 -51.455 -9.714 -60.11 c 5.497 -7.506 20.036 -10.143 41.999 -10.143 c 10.868 0 23.559 0.646 37.867 1.668 c 4.217 0.301 8.293 0.574 12.227 0.838 c 29.433 1.971 50.7 3.395 63.295 12.182 c 12.416 8.661 17.714 26.154 17.714 58.491 C 473.058 282.936 469.598 299.478 460.717 308.02 z" style="stroke: none; stroke-width: 1; stroke-dasharray: none; stroke-linecap: butt; stroke-linejoin: miter; stroke-miterlimit: 10; fill: #eebe00; fill-rule: nonzero; opacity: 1;" transform=" matrix(1 0 0 1 0 0) " stroke-linecap="round" />
</g>
</svg>